<?xml version="1.0" encoding="UTF-8"?>
<svg width="178px" height="36px" viewBox="0 0 178 36" version="1.1" xmlns="http://www.w3.org/2000/svg" xmlns:xlink="http://www.w3.org/1999/xlink">
    <!-- Generator: Sketch 48.2 (47327) - http://www.bohemiancoding.com/sketch -->
    <title>Valenica</title>
    <desc>Created with Sketch.</desc>
    <defs></defs>
    <g id="Home" stroke="none" stroke-width="1" fill="none" fill-rule="evenodd" transform="translate(-53.000000, -56.000000)">
        <g id="Header" transform="translate(53.000000, 45.000000)" fill="#FFFFFF">
            <path d="M14.7427845,46 L0.924425125,11.5029297 L7.78477669,11.5029297 L17.0865345,35.9414062 L26.3394642,11.5029297 L33.1265736,11.5029297 L19.3814564,46 L14.7427845,46 Z M39.4617515,46.4882812 C34.4568686,46.4882812 30.5994468,43.6074219 30.5994468,38.5048828 C30.5994468,33.2070312 34.8474936,31.4492188 40.3162436,31.4492188 L46.6638999,31.4492188 C46.6638999,28.3486328 45.0037436,26.2978516 41.8543296,26.2978516 C39.0467124,26.2978516 37.1668296,27.9580078 36.1170249,29.7402344 L31.5515952,26.4443359 C33.8953452,23.2460938 36.9959311,21.0976562 41.8055015,21.0976562 C48.4461265,21.0976562 52.3523765,25.2480469 52.3523765,31.2050781 L52.3523765,46 L47.4451499,46 L47.0545249,42.5087891 C44.9549155,45.5605469 42.3670249,46.4882812 39.4617515,46.4882812 Z M40.3162436,41.4589844 C43.7097983,41.4589844 46.5662436,38.7978516 46.6638999,35.7460938 L40.6580405,35.7460938 C37.9480796,35.7460938 36.7029624,37.1621094 36.7029624,38.7001953 C36.7029624,40.3115234 37.9969077,41.4589844 40.3162436,41.4589844 Z M62.5449762,46.4882812 C63.9609919,46.4882812 65.7432184,46.2441406 66.9883356,46 L66.9883356,40.9951172 C66.35357,41.0927734 65.6943903,41.1416016 65.3525934,41.1416016 C64.1563044,41.1416016 63.3994684,40.6533203 63.3994684,39.5058594 L63.3994684,11.5029297 L57.4424372,11.5029297 L57.4424372,41.1416016 C57.4424372,45.4384766 59.737359,46.4882812 62.5449762,46.4882812 Z M80.6233182,46.4882812 C72.2248807,46.4882812 68.2698026,40.4580078 68.2698026,33.890625 C68.2698026,27.5429688 71.9807401,21.0976562 80.2326932,21.0976562 C88.7776151,21.0976562 91.5364041,27.9580078 91.5364041,33.4023438 C91.5364041,34.4033203 91.4387479,35.4042969 91.3166776,35.7460938 L74.5686307,35.7460938 C75.081326,38.9443359 76.8391385,41.0927734 80.6721463,41.0927734 C82.8694119,41.0927734 84.8225369,40.4091797 86.5315213,38.5048828 L90.6330838,42.09375 C87.971951,45.0478516 84.7248807,46.4882812 80.6233182,46.4882812 Z M74.5686307,31.4492188 L85.6770291,31.4492188 C85.2864041,27.9580078 83.284451,26.1025391 80.1838651,26.1025391 C76.6682401,26.1025391 75.1301541,28.3974609 74.5686307,31.4492188 Z M95.4057617,46 L101.313965,46 L101.313965,32.6455078 C101.313965,28.3974609 103.462402,26.5908203 106.807129,26.5908203 C109.858887,26.5908203 111.470215,28.9101562 111.470215,32.1083984 L111.470215,46 L117.354004,46 L117.354004,31.3515625 C117.354004,26.2490234 114.912598,21.0976562 108.516113,21.0976562 C106.123535,21.0976562 103.26709,22.0498047 101.313965,24.4423828 L101.313965,21.6103516 L95.4057617,21.6103516 L95.4057617,46 Z M146.924425,16.9960938 L153.125597,16.9960938 L153.125597,11.5029297 L146.924425,11.5029297 L146.924425,16.9960938 Z M146.639377,46 L152.54758,46 L152.54758,21.6103516 L146.639377,21.6103516 L146.639377,46 Z M133.184516,46.4882812 C138.0185,46.4882812 141.827094,43.8027344 143.438422,39.2617188 L138.0185,37.2109375 C137.383735,39.5058594 135.528266,41.0927734 133.135688,41.0927734 C128.985297,41.0927734 127.422797,37.5527344 127.422797,33.8417969 C127.422797,30.2041016 129.034125,26.4931641 133.135688,26.4931641 C135.577094,26.4931641 137.383735,28.1533203 138.0185,30.4970703 L143.682563,28.2998047 C141.827094,23.4414062 137.969672,21.0976562 133.135688,21.0976562 C125.176703,21.0976562 121.36811,27.4453125 121.36811,33.8417969 C121.36811,40.3115234 125.225532,46.4882812 133.184516,46.4882812 Z M164.484538,46.4882812 C159.479655,46.4882812 155.622233,43.6074219 155.622233,38.5048828 C155.622233,33.2070312 159.87028,31.4492188 165.33903,31.4492188 L171.686686,31.4492188 C171.686686,28.3486328 170.02653,26.2978516 166.877116,26.2978516 C164.069499,26.2978516 162.189616,27.9580078 161.139811,29.7402344 L156.574381,26.4443359 C158.918131,23.2460938 162.018717,21.0976562 166.828288,21.0976562 C173.468913,21.0976562 177.375163,25.2480469 177.375163,31.2050781 L177.375163,46 L172.467936,46 L172.077311,42.5087891 C169.977702,45.5605469 167.389811,46.4882812 164.484538,46.4882812 Z M165.33903,41.4589844 C168.732584,41.4589844 171.58903,38.7978516 171.686686,35.7460938 L165.680827,35.7460938 C162.970866,35.7460938 161.725749,37.1621094 161.725749,38.7001953 C161.725749,40.3115234 163.019694,41.4589844 165.33903,41.4589844 Z" id="Valenica"></path>
        </g>
    </g>
</svg>